<?xml version="1.0" encoding="UTF-8" standalone="no"?><!DOCTYPE svg PUBLIC "-//W3C//DTD SVG 1.1//EN" "http://www.w3.org/Graphics/SVG/1.1/DTD/svg11.dtd"><svg width="100%" height="100%" viewBox="0 0 111 37" version="1.1" xmlns="http://www.w3.org/2000/svg" xmlns:xlink="http://www.w3.org/1999/xlink" xml:space="preserve" xmlns:serif="http://www.serif.com/" style="fill-rule:evenodd;clip-rule:evenodd;stroke-linejoin:round;stroke-miterlimit:1.41421;"><rect id="Mesa-de-trabajo1" serif:id="Mesa de trabajo1" x="0" y="0" width="110.343" height="36.808" style="fill:none;"/><clipPath id="_clip1"><rect x="0" y="0" width="110.343" height="36.808"/></clipPath><g clip-path="url(#_clip1)"><rect id="Web" x="-1.403" y="-6.503" width="119.399" height="50" style="fill:none;"/><g id="negativo"><path d="M11.881,34.386l10.378,0c-0.288,-2.776 -1.518,-5.272 -3.357,-7.142c-1.839,-1.875 -4.29,-3.12 -7.021,-3.405l0,10.547Z" style="fill:url(#_Linear2);fill-rule:nonzero;"/><path d="M15.244,9.75c1.839,1.875 4.29,3.12 7.021,3.405l0,-10.547l-10.378,0c0.288,2.776 1.518,5.271 3.357,7.142Z" style="fill:url(#_Linear3);fill-rule:nonzero;"/><rect x="1.779" y="13.155" width="30.59" height="10.684" style="fill:#bbd6de;"/><path d="M22.263,34.045c0,0.115 0,0.231 -0.004,0.341c-0.617,-5.961 -5.566,-10.355 -11.582,-10.355c-0.415,0 -8.9,-0.192 -8.9,-0.192l0,-10.684c11.316,0 20.486,9.356 20.486,20.89" style="fill:#fff;fill-rule:nonzero;"/><path d="M12.021,2.949c0,-0.115 0,-0.23 0.004,-0.34c0.617,5.96 5.566,10.354 11.582,10.354c0.415,0 8.9,0.192 8.9,0.192l0,10.684c-11.316,0 -20.486,-9.356 -20.486,-20.89" style="fill:#fff;fill-rule:nonzero;"/><path d="M50.818,18.091c0.983,1.426 1.783,2.692 2.397,3.799l0.062,0c-0.083,-1.817 -0.125,-3.139 -0.125,-3.968l-0.004,-6.326l2.509,-0.001l0.007,13.968l-2.631,0.001l-4.467,-6.428c-0.786,-1.113 -1.598,-2.404 -2.439,-3.872l-0.061,0c0.083,1.713 0.124,3.038 0.125,3.978l0.003,6.326l-2.508,0.002l-0.008,-13.969l2.631,-0.001l4.509,6.491Z" style="fill:#fff;fill-rule:nonzero;"/><path d="M65.029,25.819c-0.716,0 -1.361,-0.071 -1.935,-0.213c-0.573,-0.143 -1.078,-0.348 -1.515,-0.615c-0.437,-0.268 -0.809,-0.595 -1.117,-0.981c-0.307,-0.386 -0.553,-0.823 -0.738,-1.31c-0.15,-0.39 -0.258,-0.821 -0.323,-1.294c-0.065,-0.473 -0.098,-1.002 -0.098,-1.587l-0.005,-8.227l2.509,-0.001l0.004,7.997c0.001,0.988 0.117,1.761 0.35,2.317c0.259,0.62 0.638,1.066 1.137,1.341c0.498,0.275 1.085,0.412 1.761,0.411c0.676,0 1.262,-0.138 1.76,-0.413c0.499,-0.275 0.877,-0.722 1.136,-1.342c0.232,-0.557 0.347,-1.33 0.347,-2.318l-0.004,-7.997l2.508,-0.001l0.004,8.226c0.001,0.585 -0.031,1.114 -0.096,1.587c-0.065,0.474 -0.172,0.905 -0.322,1.295c-0.184,0.487 -0.431,0.924 -0.741,1.311c-0.311,0.386 -0.689,0.713 -1.136,0.982c-0.447,0.268 -0.961,0.473 -1.541,0.616c-0.58,0.143 -1.228,0.215 -1.945,0.216Z" style="fill:#fff;fill-rule:nonzero;"/><path d="M84.168,15.775c0.001,0.974 -0.263,1.801 -0.792,2.48c-0.528,0.679 -1.345,1.182 -2.451,1.51l0,0.041l4.078,5.74l-3.01,0.002l-3.729,-5.406l-1.72,0.001l0.003,5.408l-2.509,0.001l-0.007,-13.968l4.166,-0.002c0.69,-0.001 1.331,0.039 1.925,0.118c0.594,0.08 1.103,0.2 1.526,0.36c0.805,0.313 1.427,0.777 1.864,1.392c0.437,0.616 0.656,1.39 0.656,2.323Zm-6.387,2.227c0.574,0 1.06,-0.026 1.459,-0.079c0.399,-0.052 0.735,-0.131 1.008,-0.235c0.505,-0.196 0.855,-0.462 1.049,-0.8c0.195,-0.337 0.292,-0.725 0.292,-1.164c-0.001,-0.376 -0.078,-0.708 -0.231,-0.997c-0.154,-0.288 -0.415,-0.516 -0.784,-0.683c-0.239,-0.111 -0.539,-0.193 -0.901,-0.245c-0.362,-0.052 -0.809,-0.078 -1.341,-0.077l-1.792,0.001l0.003,4.28l1.238,-0.001Z" style="fill:#fff;fill-rule:nonzero;"/><path d="M93.939,21.532c-0.001,-0.355 -0.086,-0.642 -0.257,-0.861c-0.171,-0.219 -0.403,-0.398 -0.696,-0.537c-0.294,-0.139 -0.623,-0.252 -0.988,-0.339c-0.366,-0.087 -0.75,-0.172 -1.152,-0.255c-0.533,-0.118 -1.041,-0.259 -1.526,-0.422c-0.485,-0.163 -0.911,-0.389 -1.28,-0.678c-0.369,-0.289 -0.663,-0.656 -0.881,-1.101c-0.219,-0.445 -0.328,-1.002 -0.329,-1.67c0,-0.738 0.126,-1.38 0.378,-1.926c0.252,-0.547 0.595,-0.999 1.028,-1.358c0.433,-0.359 0.942,-0.627 1.525,-0.805c0.584,-0.178 1.24,-0.267 1.971,-0.267c0.73,-0.001 1.464,0.072 2.201,0.218c0.737,0.145 1.372,0.333 1.905,0.562l0.001,2.193c-0.71,-0.285 -1.391,-0.492 -2.043,-0.62c-0.652,-0.129 -1.264,-0.193 -1.838,-0.192c-0.826,0 -1.462,0.154 -1.909,0.46c-0.447,0.307 -0.67,0.766 -0.67,1.379c0,0.354 0.074,0.647 0.221,0.876c0.147,0.23 0.346,0.419 0.599,0.569c0.253,0.149 0.543,0.269 0.871,0.36c0.327,0.09 0.675,0.173 1.044,0.25c0.58,0.125 1.135,0.269 1.664,0.432c0.529,0.163 0.998,0.391 1.408,0.683c0.41,0.292 0.734,0.673 0.973,1.142c0.239,0.47 0.359,1.07 0.359,1.801c0.001,0.752 -0.135,1.403 -0.408,1.953c-0.273,0.55 -0.66,1.004 -1.161,1.363c-0.502,0.358 -1.111,0.625 -1.827,0.799c-0.717,0.175 -1.502,0.262 -2.355,0.263c-0.744,0 -1.476,-0.074 -2.196,-0.224c-0.72,-0.149 -1.319,-0.359 -1.797,-0.63l-0.001,-2.161c0.676,0.299 1.334,0.516 1.976,0.651c0.642,0.136 1.304,0.203 1.986,0.203c0.396,-0.001 0.785,-0.034 1.167,-0.1c0.383,-0.067 0.725,-0.18 1.029,-0.34c0.304,-0.16 0.548,-0.378 0.732,-0.653c0.184,-0.275 0.276,-0.614 0.276,-1.018Z" style="fill:#fff;fill-rule:nonzero;"/><path d="M101.812,23.396l6.737,-0.004l0.001,2.14l-9.245,0.006l-0.007,-13.969l8.876,-0.005l0.001,2.14l-6.368,0.004l0.002,3.612l5.467,-0.003l0.001,2.14l-5.467,0.003l0.002,3.936Z" style="fill:#fff;fill-rule:nonzero;"/></g></g><defs><linearGradient id="_Linear2" x1="0" y1="0" x2="1" y2="0" gradientUnits="userSpaceOnUse" gradientTransform="matrix(6.45781e-16,10.5464,-10.5464,6.45781e-16,16.1966,23.8394)"><stop offset="0" style="stop-color:#bbd6de;stop-opacity:1"/><stop offset="0.53" style="stop-color:#add1db;stop-opacity:1"/><stop offset="1" style="stop-color:#7cbfd0;stop-opacity:1"/></linearGradient><linearGradient id="_Linear3" x1="0" y1="0" x2="1" y2="0" gradientUnits="userSpaceOnUse" gradientTransform="matrix(5.4651e-16,-8.92518,8.92518,5.4651e-16,17.6464,11.5337)"><stop offset="0" style="stop-color:#bbd6de;stop-opacity:1"/><stop offset="0.76" style="stop-color:#96c0cc;stop-opacity:1"/><stop offset="1" style="stop-color:#7cbfd0;stop-opacity:1"/></linearGradient></defs></svg>