<svg width="29" height="26" viewBox="0 0 29 26" version="1.1" xmlns="http://www.w3.org/2000/svg" xmlns:xlink="http://www.w3.org/1999/xlink">
<title>Group 3</title>
<desc>Created using Figma</desc>
<g id="Canvas" transform="translate(-759 175)">
<g id="Group 3">
<g id="cardiogram">
<g id="Layer 2 17">
<g id="Group">
<g id="Vector">
<use xlink:href="#path0_fill" transform="translate(759 -175)" fill="#FF0000"/>
</g>
<g id="Vector">
<use xlink:href="#path1_fill" transform="translate(761.785 -166.484)" fill="#FF0000"/>
</g>
</g>
</g>
</g>
</g>
</g>
<defs>
<path id="path0_fill" d="M 10.1555 5.67443C 10.246 5.42228 10.4999 5.267 10.766 5.30183C 11.0319 5.33645 11.2378 5.55142 11.2607 5.81832L 12.1721 16.4575L 13.8788 10.311C 13.9486 10.0598 14.1791 9.88702 14.4411 9.89371C 14.702 9.89948 14.9257 10.0813 14.9843 10.3354L 15.9347 14.4548L 17.5575 7.643C 17.621 7.37646 17.8657 7.1939 18.1392 7.20573C 18.4131 7.21862 18.639 7.42447 18.6772 7.69578L 19.8883 16.3218L 20.4313 14.5687C 20.5052 14.3301 20.7262 14.1673 20.9762 14.1673L 27.0782 14.1673C 27.9738 12.8201 28.6111 11.4788 28.8231 10.1886C 29.2886 7.33308 28.8346 4.97809 27.4707 3.19016C 26.0934 1.3852 24.0014 0.355364 21.0691 0.0415981C 20.7873 0.01332 20.5299 -5.97782e-08 20.2747 -5.97782e-08C 18.1994 -5.97782e-08 16.1071 0.77106 14.499 2.07527C 12.8933 0.77106 10.7991 -5.97782e-08 8.7278 -5.97782e-08C 8.47007 -5.97782e-08 8.2149 0.01332 7.93121 0.0415981C 4.99896 0.355364 2.90472 1.3852 1.52928 3.19016C 0.165751 4.97816 -0.288688 7.33308 0.176873 10.1886C 0.392258 11.4992 1.0459 12.8621 1.96319 14.2301L 7.08286 14.2301L 10.1555 5.67443Z"/>
<path id="path1_fill" d="M 17.4384 10.5799C 17.3594 10.8349 17.1133 11.0011 16.8478 10.9794C 16.5815 10.958 16.3658 10.7548 16.3287 10.4905L 15.1828 2.32842L 13.6961 8.56899C 13.635 8.82577 13.4053 9.00683 13.1413 9.00691C 13.1406 9.00691 13.1399 9.00691 13.1393 9.00691C 12.8744 9.00598 12.645 8.82292 12.5855 8.56507L 11.5928 4.26273L 9.63918 11.2981C 9.5701 11.5467 9.34373 11.7156 9.08999 11.7157C 9.07231 11.7157 9.05463 11.7148 9.03681 11.7132C 8.76196 11.6877 8.54487 11.4692 8.52134 11.1944L 7.56227 1.739e-07L 5.23646 6.47619C 5.15518 6.70256 4.94037 6.85357 4.6996 6.85357L -6.30974e-08 6.85357C 1.89654 9.32238 4.49562 11.7656 6.77317 13.9062C 6.77317 13.9062 8.71412 15.8529 9.29661 16.3518C 9.73622 16.7279 10.6857 17.4838 11.7164 17.4838C 12.7455 17.4838 13.6973 16.7279 14.1342 16.3518C 14.7168 15.8528 16.6577 13.9062 16.6577 13.9062C 18.9543 11.7477 21.5781 9.28085 23.4787 6.79081L 18.6122 6.79081L 17.4384 10.5799Z"/>
</defs>
</svg>
