<svg width="29" height="29" viewBox="0 0 29 29" version="1.1" xmlns="http://www.w3.org/2000/svg" xmlns:xlink="http://www.w3.org/1999/xlink">
<title>Group 2</title>
<desc>Created using Figma</desc>
<g id="Canvas" transform="translate(-654 296)">
<g id="Group 2">
<g id="bandage">
<g id="Vector">
<use xlink:href="#path0_fill" transform="translate(654 -296)" fill="#DA9F24"/>
</g>
</g>
</g>
</g>
<defs>
<path id="path0_fill" d="M 26.8226 3.01139L 25.986 2.17449C 23.0874 -0.72483 18.3712 -0.72483 15.4725 2.17449L 2.17744 15.4727C 0.773236 16.8772 0 18.7446 0 20.7307C 9.76431e-05 22.7169 0.773333 24.5842 2.17754 25.9887L 3.01405 26.8255L 3.01405 26.8256C 4.46336 28.2752 6.36711 29 8.27086 29C 10.1746 29 12.0784 28.2752 13.5277 26.8256L 26.8226 13.5273C 28.2267 12.1229 29 10.2556 29 8.26926C 29 6.28292 28.2268 4.41574 26.8226 3.01139ZM 20.0306 17.5536L 11.4613 17.5536L 10.3391 16.4311L 21.1529 16.4311L 20.0306 17.5536ZM 17.5388 20.0459L 13.9529 20.0459L 12.8307 18.9234L 18.6611 18.9234L 17.5388 20.0459ZM 15.7459 21.8392L 15.3224 21.4156L 16.1694 21.4156L 15.7459 21.8392ZM 8.96959 15.0613L 7.84738 13.9388L 20.0305 13.9388L 21.1527 15.0613L 8.96959 15.0613ZM 7.84728 12.569L 8.96949 11.4465L 17.5388 11.4465L 18.6611 12.569L 7.84728 12.569ZM 10.3389 10.0767L 11.4612 8.95419L 15.0471 8.95419L 16.1693 10.0767L 10.3389 10.0767ZM 12.8306 7.58442L 13.2541 7.16084L 13.6776 7.58442L 12.8306 7.58442ZM 12.1442 25.4418C 11.1095 26.4767 9.73394 27.0467 8.27076 27.0467C 6.80758 27.0467 5.43198 26.4767 4.39736 25.4418L 3.56085 24.605C 2.52622 23.5701 1.95638 22.1942 1.95628 20.7307C 1.95628 19.2672 2.52612 17.8912 3.56075 16.8564L 5.7791 14.6375L 14.3625 23.2229L 12.1442 25.4418ZM 25.4392 12.1436L 23.2209 14.3624L 14.6376 5.77701L 16.8559 3.55813C 17.8906 2.52326 19.2662 1.95328 20.7293 1.95328C 22.1925 1.95328 23.5681 2.52326 24.6027 3.55803L 25.4392 4.39493C 26.4739 5.42981 27.0437 6.80573 27.0437 8.26926C 27.0437 9.73279 26.4738 11.1087 25.4392 12.1436Z"/>
</defs>
</svg>
