<svg width="30" height="45" viewBox="0 0 30 45" version="1.1" xmlns="http://www.w3.org/2000/svg" xmlns:xlink="http://www.w3.org/1999/xlink">
<title>Group 3</title>
<desc>Created using Figma</desc>
<g id="Canvas" transform="translate(-542 186)">
<g id="Group 3">
<g id="Group 3">
<g id="blood-transfusion">
<g id="Vector">
<use xlink:href="#path0_fill" transform="translate(549.593 -186)" fill="#DDDDDD"/>
</g>
<g id="Vector">
<use xlink:href="#path1_fill" transform="translate(542.132 -161.777)" fill="#00BFCF"/>
</g>
<g id="Vector">
<use xlink:href="#path2_fill" transform="translate(552.959 -179.375)" fill="#F5F7FA"/>
</g>
<g id="Group">
<g id="Vector">
<use xlink:href="#path3_fill" transform="translate(552.959 -172.271)" fill="#00BFCF"/>
</g>
</g>
<g id="Vector" opacity="0.2">
<use xlink:href="#path4_fill" transform="translate(561.919 -179.375)" fill="#FFFFFF"/>
</g>
</g>
</g>
</g>
</g>
<defs>
<path id="path0_fill" d="M 11.2018 -3.47085e-11C 6.5646 -3.47085e-11 6.01509 3.25432 1.28159e-06 3.15566L 0.00325333 27.1341C 0.00325333 28.0058 0.720009 28.7126 1.60411 28.7126L 11.2051 28.7126L 20.8059 28.7126C 21.69 28.7126 22.4069 28.0058 22.4069 27.1341L 22.4036 3.15566C 16.3887 3.25422 15.8375 -3.47085e-11 11.2018 -3.47085e-11Z"/>
<path id="path1_fill" d="M 17.5459 7.32945e-07L 17.5459 8.90228C 17.5459 11.2621 16.6142 13.4796 14.923 15.1488C 13.2302 16.8163 10.9813 17.735 8.58803 17.735L 2.81951e-07 17.735L 2.81951e-07 19.9445L 8.58803 19.9445C 14.772 19.9445 19.7866 14.9999 19.7866 8.90228L 19.7866 7.32945e-07L 17.5459 7.32945e-07Z"/>
<path id="path2_fill" d="M 13.4376 1.64281e-07L 2.24066 1.64281e-07C 1.00883 1.64281e-07 -1.43539e-06 0.993087 -1.43539e-06 2.20782L -1.43539e-06 13.732C -1.43539e-06 14.9466 0.505204 16.577 1.12033 17.3551C 1.73703 18.1346 3.24791 18.7702 4.47974 18.7702L 11.1985 18.7702C 12.4304 18.7702 13.9429 18.1346 14.5579 17.3551C 15.1747 16.577 15.6783 14.9466 15.6783 13.732L 15.6783 2.20782C 15.6783 0.993087 14.6694 1.64281e-07 13.4376 1.64281e-07Z"/>
<path id="path3_fill" d="M 14.858 3.91746e-07C 12.957 0.194104 11.028 0.735939 9.16778 1.41691C 6.23976 2.48919 3.48078 3.17026 0.929984 2.96156L -1.43539e-06 2.96156L -1.43539e-06 6.62831C -1.43539e-06 7.84294 0.505204 9.47331 1.12033 10.2514C 1.73703 11.0309 3.24791 11.6665 4.47974 11.6665L 11.1985 11.6665C 12.4304 11.6665 13.9429 11.0309 14.5579 10.2514C 15.1747 9.47331 15.6783 7.84294 15.6783 6.62831L 15.6783 0.000103067L 14.858 0.000103067L 14.858 3.91746e-07L 14.858 3.91746e-07Z"/>
<path id="path4_fill" d="M 4.47816 1.64281e-07L 2.23898 1.64281e-07C 3.47091 1.64281e-07 4.47816 0.993087 4.47816 2.20782L 4.47816 13.732C 4.47816 14.9466 3.97454 16.577 3.35941 17.3551C 2.7426 18.1346 1.23193 18.7702 -1.02528e-07 18.7702L 2.23898 18.7702C 3.47091 18.7702 4.98337 18.1346 5.59839 17.3551C 6.2152 16.577 6.71882 14.9466 6.71882 13.732L 6.71882 2.20782C 6.71882 0.993087 5.70989 1.64281e-07 4.47816 1.64281e-07Z"/>
</defs>
</svg>
