<svg width="31" height="31" viewBox="0 0 31 31" version="1.1" xmlns="http://www.w3.org/2000/svg" xmlns:xlink="http://www.w3.org/1999/xlink">
<title>Group 3</title>
<desc>Created using Figma</desc>
<g id="Canvas" transform="translate(-542 301)">
<g id="Group 3">
<g id="Group 2">
<g id="syringe">
<g id="Group">
<g id="Vector">
<use xlink:href="#path0_fill" transform="translate(542 -296.956)" fill="#444444"/>
</g>
<g id="Vector">
<use xlink:href="#path1_fill" transform="translate(562.895 -301)" fill="#444444"/>
</g>
</g>
</g>
</g>
</g>
</g>
<defs>
<path id="path0_fill" d="M 16.6593 0.187964C 16.3897 -0.0681489 15.9651 -0.0614508 15.709 0.201423C 15.4595 0.464297 15.4595 0.87548 15.709 1.13835L 17.1851 2.61449L 3.77202 16.0346C 3.20584 16.6008 3.38783 17.2142 3.52261 17.659C 3.54959 17.7399 3.57651 17.8276 3.59673 17.9287L 4.52688 21.4808L 0.206488 25.8014C -0.0631417 26.0575 -0.0698397 26.4889 0.193029 26.7518C 0.455897 27.0146 0.88053 27.0281 1.1434 26.7652C 1.15016 26.7585 1.15686 26.7518 1.15686 26.7518L 5.45709 22.4581L 9.05637 23.3883C 9.15747 23.4085 9.25857 23.4422 9.34622 23.4624C 9.56864 23.5366 9.79783 23.577 10.0337 23.5838C 10.3707 23.5905 10.6942 23.449 10.9302 23.2063L 24.3432 9.78628L 25.8126 11.2557C 26.0822 11.5118 26.5068 11.5051 26.7629 11.2422C 27.0124 10.9793 27.0124 10.5681 26.7629 10.3053L 16.6593 0.187964ZM 10.027 22.2357C 9.99997 22.2289 9.82475 22.1953 9.71688 22.1616C 9.60902 22.1279 9.481 22.0942 9.37313 22.0739L 5.94909 21.191C 5.92886 21.1505 5.90864 21.1168 5.88166 21.0831C 5.86144 21.0629 5.83446 21.0494 5.80754 21.0359L 4.89761 17.5983C 4.87063 17.4837 4.83695 17.3826 4.80997 17.2882C 4.77629 17.1669 4.72909 17.0051 4.72232 16.9917L 6.00299 15.7043L 8.29468 17.996C 8.56431 18.2522 8.98894 18.2455 9.24505 17.9826C 9.49446 17.7197 9.49446 17.3085 9.24505 17.0456L 6.95336 14.7539L 8.78667 12.9138C 8.80689 13.0486 8.86755 13.1767 8.9619 13.2778L 10.3099 14.6258C 10.5795 14.8819 11.0042 14.8752 11.2603 14.6124C 11.5097 14.3495 11.5097 13.9383 11.2603 13.6754L 9.91227 12.3274C 9.81116 12.233 9.68984 12.1724 9.5483 12.1521L 11.476 10.2244C 11.4962 10.3592 11.5569 10.4873 11.6512 10.5884L 13.6733 12.6105C 13.9429 12.8666 14.3676 12.8599 14.6237 12.597C 14.8731 12.3341 14.8731 11.923 14.6237 11.6601L 12.6016 9.63797C 12.5005 9.54363 12.3724 9.48296 12.2376 9.46274L 13.734 7.95962L 15.0146 9.24031C 15.2843 9.49642 15.7089 9.48972 15.965 9.22685C 16.2144 8.96398 16.2144 8.55279 15.965 8.28992L 14.6843 7.00923L 16.093 5.60052L 17.7107 7.2182C 17.9803 7.47431 18.4049 7.46762 18.661 7.20474C 18.9104 6.94187 18.9104 6.53068 18.661 6.26781L 17.0434 4.65012L 18.1151 3.57841L 23.3724 8.83589L 10.027 22.2357Z"/>
<path id="path1_fill" d="M 9.91915 6.92835L 3.17899 0.187964C 2.90936 -0.0681491 2.48472 -0.0614508 2.22861 0.201423C 1.97921 0.464297 1.97921 0.87548 2.22861 1.13835L 3.77214 2.68862L 0.206487 6.25429C -0.0631423 6.5104 -0.0698392 6.9418 0.193029 7.20468C 0.449136 7.47431 0.880529 7.48101 1.1434 7.21814C 1.15016 7.21138 1.15686 7.20468 1.15686 7.20468L 4.72245 3.63901L 6.46819 5.38478L 2.90259 8.95045C 2.63297 9.20657 2.62627 9.63797 2.88913 9.90084C 3.14524 10.1705 3.57664 10.1772 3.8395 9.9143C 3.84627 9.90754 3.85296 9.90084 3.85296 9.90084L 7.41856 6.33517L 8.96209 7.87874C 9.23172 8.13485 9.65635 8.12815 9.91246 7.86528C 10.1686 7.6024 10.1686 7.19122 9.91915 6.92835Z"/>
</defs>
</svg>
