<svg width="30" height="37" viewBox="0 0 30 37" version="1.1" xmlns="http://www.w3.org/2000/svg" xmlns:xlink="http://www.w3.org/1999/xlink">
<title>Group 3</title>
<desc>Created using Figma</desc>
<g id="Canvas" transform="translate(-650 183)">
<g id="Group 3">
<g id="water">
<g id="Group">
<g id="Layer 2 34">
<g id="Group">
<g id="Vector">
<use xlink:href="#path0_fill" transform="translate(653 -183)" fill="#FF0000"/>
</g>
<g id="Vector">
<use xlink:href="#path1_fill" transform="translate(650.095 -168.226)" fill="#F7F1E6"/>
</g>
<g id="Vector">
<use xlink:href="#path2_fill" transform="translate(669.687 -161.12)" fill="#FF0000"/>
</g>
<g id="Vector">
<use xlink:href="#path3_fill" transform="translate(665.882 -151.831)" fill="#F7F1E6"/>
</g>
</g>
</g>
</g>
</g>
</g>
</g>
<defs>
<path id="path0_fill" d="M 9.76292 0.641729C 9.12096 0.0877255 7.5966 -0.802765 7.34708 1.5036C 6.45116 7.46864 -2.26126e-08 11.6374 -2.26126e-08 17.5186C -2.26126e-08 22.4761 4.04551 26.495 9.03594 26.495C 14.0263 26.495 18.0718 22.4761 18.0718 17.5186C 18.0717 13.0206 16.2544 6.24377 9.76292 0.641729ZM 5.50179 22.2796C 5.36184 22.4656 5.14761 22.5641 4.93087 22.5641C 4.78416 22.5641 4.63625 22.5191 4.50908 22.4256C 4.42961 22.3671 2.55699 20.9627 2.15335 18.3083C 1.7498 15.6544 3.55888 13.1673 3.63612 13.0627C 3.8686 12.7477 4.31429 12.6794 4.63161 12.9107C 4.94838 13.1416 5.0171 13.5836 4.78527 13.8988C 4.76184 13.9309 3.24785 16.0329 3.56184 18.097C 3.87471 20.1551 5.34443 21.2791 5.35925 21.2903C 5.67212 21.5251 5.73659 21.9678 5.50179 22.2796Z"/>
<path id="path1_fill" d="M 3.26453 8.5167C 3.24971 8.50556 1.78 7.38155 1.46712 5.32343C 1.15314 3.25933 2.66712 1.15732 2.69055 1.12521C 2.92239 0.810066 2.85366 0.368041 2.5369 0.137092C 2.21958 -0.0941337 1.77388 -0.0258616 1.5414 0.289095C 1.46416 0.393712 -0.34492 2.88079 0.0586308 5.53469C 0.462181 8.18914 2.3348 9.59351 2.41436 9.65203C 2.54153 9.74551 2.68944 9.79051 2.83615 9.79051C 3.05289 9.79051 3.26712 9.69215 3.40707 9.50601C 3.64177 9.19418 3.57731 8.75151 3.26453 8.5167Z"/>
<path id="path2_fill" d="M 5.57163 0.366279C 5.20522 0.0500346 4.33532 -0.458146 4.19296 0.858175C 3.68169 4.26224 2.1482e-07 6.6413 2.1482e-07 9.99752C 2.1482e-07 12.8267 2.30877 15.1203 5.15678 15.1203C 8.0046 15.1203 10.3132 12.8267 10.3132 9.99752C 10.3132 7.43067 9.2761 3.56323 5.57163 0.366279ZM 3.13986 12.7145C 3.06002 12.8207 2.93785 12.8769 2.81402 12.8769C 2.73038 12.8769 2.64591 12.8513 2.57329 12.7979C 2.52791 12.7645 1.45925 11.963 1.22899 10.4482C 0.998734 8.93368 2.03109 7.51431 2.07509 7.45468C 2.20781 7.27489 2.46224 7.23597 2.64322 7.36792C 2.82402 7.49977 2.86329 7.75197 2.73103 7.93176C 2.71751 7.95017 1.85354 9.14972 2.03276 10.3277C 2.21142 11.5022 3.04992 12.1437 3.05854 12.15C 3.23702 12.2839 3.27379 12.5366 3.13986 12.7145Z"/>
<path id="path3_fill" d="M 1.863 4.86037C 1.85438 4.85402 1.01588 4.21251 0.837215 3.03798C 0.657993 1.86014 1.52196 0.660488 1.53549 0.642086C 1.66775 0.462295 1.62848 0.209999 1.44768 0.0782384C 1.2667 -0.0537065 1.01227 -0.0147861 0.879543 0.165005C 0.835548 0.224629 -0.196806 1.644 0.0334501 3.15852C 0.263614 4.67331 1.33228 5.47482 1.37775 5.50822C 1.45028 5.56159 1.53475 5.58726 1.61848 5.58726C 1.74231 5.58726 1.86438 5.53113 1.94432 5.42486C 2.07815 5.247 2.04138 4.99434 1.863 4.86037Z"/>
</defs>
</svg>
