<svg width="40" height="30" viewBox="0 0 40 30" version="1.1" xmlns="http://www.w3.org/2000/svg" xmlns:xlink="http://www.w3.org/1999/xlink">
<title>Group 3</title>
<desc>Created using Figma</desc>
<g id="Canvas" transform="translate(-754 296)">
<g id="Group 3">
<g id="Vector">
<use xlink:href="#path0_fill" transform="matrix(0.707107 -0.707107 -0.707107 -0.707107 768.807 -262.427)" fill="#1785B7"/>
</g>
<g id="Rectangle 4">
<use xlink:href="#path1_fill" transform="matrix(0.707107 -0.707107 -0.707107 -0.707107 792.443 -265.676)" fill="#1785B7"/>
</g>
</g>
</g>
<defs>
<path id="path0_fill" d="M 28.2503 0C 20.1603 0 18.5434 0 12.4301 0C 11.806 0 11.3001 0.482915 11.3001 1.07854L 11.3001 4.31415C 11.3001 4.90978 11.806 5.39269 12.4301 5.39269L 13.5601 5.39269L 13.5601 10.7854C 13.5601 11.0713 13.6793 11.3457 13.8912 11.548L 18.4112 15.8621C 18.6231 16.0644 18.9106 16.1781 19.2102 16.1781L 19.2102 22.6494C 19.2102 25.6227 16.6754 28.0421 13.5602 28.0421C 10.4449 28.0421 7.9101 25.6227 7.9101 22.6494C 7.9101 19.0809 4.86874 16.1781 1.13001 16.1781C 0.505964 16.1781 0 16.6611 0 17.2567C 0 17.8523 0.505964 18.3352 1.13001 18.3352C 3.62233 18.3352 5.65007 20.2706 5.65007 22.6494C 5.65007 26.8124 9.19845 30.1991 13.5602 30.1991C 17.9219 30.1991 21.4703 26.8124 21.4703 22.6494L 21.4703 16.1781C 21.7699 16.1781 22.0574 16.0644 22.2693 15.8621L 26.7893 11.548C 27.0012 11.3457 27.1204 11.0714 27.1204 10.7854L 27.1204 5.39269L 28.2504 5.39269C 28.8745 5.39269 29.3804 4.90978 29.3804 4.31415L 29.3804 1.07854C 29.3803 0.482915 28.8743 0 28.2503 0ZM 24.8602 10.3388L 21.0023 14.021L 19.6781 14.021L 15.8201 10.3388L 15.8201 5.39269L 24.8602 5.39269L 24.8602 10.3388ZM 27.1203 3.23561L 25.9902 3.23561L 14.6901 3.23561L 13.5601 3.23561L 13.5601 2.15708L 27.1203 2.15708L 27.1203 3.23561Z"/>
<path id="path1_fill" d="M 0 6.31341L 1.2962 0L 2.59239 6.31341L 2.59239 13.4686L 0 13.4686L 0 6.31341Z"/>
</defs>
</svg>
